# xmcd
#
# Track frame offsets: 
#        150
#        11708
#        23983
#        40626
#        53277
#        68300
#        81718
#        93129
#        106682
#        118573
#        129476
#        140149
#        152587
#        165383
#        182791
#        195595
#        211687
#        222104
#
# Disc length: 3146 seconds
#
# Revision: 0
# Processed by: cddbd v1.5.2PL0 Copyright (c) Steve Scherf et al.
# Submitted via: ExactAudioCopy v1.3
#
DISCID=e00c4812
DTITLE=Johnny Cash - Music Collection
DYEAR=2016
DGENRE=Country
TTITLE0=Ring Of Fire
TTITLE1=I Walk The Line
TTITLE2=(Ghost) Riders In The Sky
TTITLE3=Folsom Prison Blues
TTITLE4=A Boy Named Sue (Live)
TTITLE5=Don't Take Your Guns To Town
TTITLE6=Big River
TTITLE7=It Ain't Me, Babe
TTITLE8=Home Of The Blues
TTITLE9=Cry,Cry,Cry
TTITLE10=Daddy Sang Bass
TTITLE11=Jackson
TTITLE12=San Quentin (Live)
TTITLE13=Sunday Morning Coming Down
TTITLE14=Wanted Man
TTITLE15=City Of New Orleans (Live)
TTITLE16=Hey Porter
TTITLE17=Orange Blossem Special
EXTD=
EXTT0=
EXTT1=
EXTT2=
EXTT3=
EXTT4=
EXTT5=
EXTT6=
EXTT7=
EXTT8=
EXTT9=
EXTT10=
EXTT11=
EXTT12=
EXTT13=
EXTT14=
EXTT15=
EXTT16=
EXTT17=
PLAYORDER=
